<?xml version="1.0" encoding="UTF-8" standalone="no"?>
<!-- Creator: CorelDRAW X7 -->

<svg
   xml:space="preserve"
   width="203.373mm"
   height="187.59599mm"
   version="1.1"
   style="clip-rule:evenodd;fill-rule:evenodd;image-rendering:optimizeQuality;shape-rendering:geometricPrecision;text-rendering:geometricPrecision"
   viewBox="0 0 20337 18760"
   id="svg1"
   xmlns="http://www.w3.org/2000/svg"
   xmlns:svg="http://www.w3.org/2000/svg">
 <defs
   id="defs1"><style
     type="text/css"
     id="style1">
   <![CDATA[
    .fil0 {fill:black;fill-rule:nonzero}
   ]]>
  </style></defs>
 <g
   id="Warstwa_x0020_1">
  <metadata
   id="CorelCorpID_0Corel-Layer" />
  <path
   class="fil0"
   d="m 17910,3044 c -9,-504 2,-1183 94,-1602 l -88,-19 c -94,424 -104,1108 -96,1617 -289,47 -468,675 -402,1420 68,759 364,1353 662,1326 298,-26 485,-663 418,-1422 -62,-695 -317,-1252 -588,-1320 z m -3306,3236 c 43,90 94,193 152,305 370,178 709,362 885,460 141,-255 790,-223 1472,75 698,306 1166,776 1046,1050 -120,274 -783,249 -1481,-57 -641,-281 -1089,-701 -1063,-980 -154,-85 -452,-248 -788,-414 295,559 692,1264 777,1606 237,120 443,232 575,305 201,-195 809,-114 1431,203 679,346 1119,843 983,1110 -136,266 -796,202 -1475,-144 -666,-340 -1102,-824 -990,-1094 -120,-67 -298,-163 -503,-268 252,1624 -2043,1814 -2043,187 0,-870 796,-1104 973,-2035 -315,-146 -637,-278 -888,-340 l 22,-88 c 250,63 569,192 881,336 5,-34 9,-69 12,-105 5,-57 -11,-88 12,-112 z m -4206,2187 c 227,0 411,185 411,412 0,228 -184,412 -411,412 -228,0 -412,-184 -412,-412 0,-227 184,-412 412,-412 z m -2839,4873 h 5031 v 555 H 7559 Z m 2822,-3922 c 1157,0 2106,611 2186,1384 H 8195 c 81,-773 1029,-1384 2186,-1384 z m -2054,3689 c 0,0 -209,-611 -1484,-1221 -1287,-615 -1690,-1672 -1235,-2642 715,-1521 2969,-484 2001,1257 -304,0 -575,0 -575,0 753,-1219 -155,-1669 -638,-1247 -481,421 -332,1696 1442,1882 1093,114 5204,-49 5204,-49 0,0 1238,-102 1176,-1091 153,0 381,0 816,0 -86,2700 -2548,1793 -3101,3111 -946,0 -2671,0 -3606,0 z m 6427,-7691 c -357,-198 -1334,-722 -1921,-869 l 22,-87 c 592,148 1568,670 1934,873 163,-232 792,-208 1459,65 704,289 1184,748 1070,1025 -113,276 -777,267 -1482,-22 -671,-276 -1138,-705 -1082,-985 z M 13547,3662 c -361,-201 -1331,-720 -1915,-867 l 21,-87 c 596,149 1578,676 1941,877 190,-205 803,-148 1440,147 691,321 1149,802 1023,1073 -127,271 -789,231 -1480,-90 -675,-313 -1127,-779 -1030,-1053 z M 11877,1326 C 11515,1124 10547,606 9963,460 l 22,-87 c 587,146 1550,660 1924,868 157,-245 802,-176 1465,162 580,295 986,701 1006,979 2650,1917 4063,4083 4510,6191 221,1044 205,2074 -17,3051 -221,977 -646,1901 -1243,2735 -1324,1850 -3495,3260 -6155,3824 l -66,-311 c 2580,-547 4682,-1910 5963,-3698 573,-801 981,-1686 1192,-2619 211,-934 226,-1917 15,-2916 -431,-2034 -1805,-4132 -4384,-5999 -268,96 -785,-2 -1313,-272 -626,-319 -1049,-766 -1005,-1042 z m 8412,7263 c -117,753 -451,1326 -747,1280 -296,-46 -441,-693 -324,-1446 113,-725 427,-1284 714,-1283 58,-513 162,-1251 321,-1686 l 84,31 c -157,430 -260,1165 -316,1674 257,114 377,726 268,1430 z m -737,-2359 c -72,758 -372,1350 -670,1322 -298,-29 -481,-667 -409,-1425 69,-720 343,-1290 625,-1321 39,-516 119,-1277 266,-1726 l 85,28 c -144,442 -223,1195 -262,1706 272,84 434,696 365,1416 z M 16080,2855 c -129,-751 6,-1401 301,-1451 6,-1 12,-2 18,-2 1,-466 21,-1007 101,-1364 l 88,20 c -79,353 -99,891 -99,1354 267,81 546,600 659,1260 128,751 -7,1401 -302,1451 -295,51 -638,-517 -766,-1268 z M 6890,16830 C 6109,16527 5388,16102 4752,15577 L 3250,16728 1409,14613 2942,13431 c -446,-778 -761,-1641 -915,-2558 H 27 L 0,8066 h 2064 c 179,-912 518,-1767 986,-2535 L 1384,4193 3207,2060 4919,3435 C 5513,2972 6176,2593 6890,2316 V 0 h 2808 v 3483 c -3363,0 -6090,2727 -6090,6090 0,3363 2727,6090 6090,6090 v 3097 l -2808,-8 z"
   id="path1"
   style="fill:#470d07;fill-opacity:1" />
 </g>
</svg>
